<svg width="115" height="445" viewBox="0 0 115 445" fill="none" xmlns="http://www.w3.org/2000/svg">
<ellipse cx="43.5" cy="36.9815" rx="43.5" ry="36.9815" transform="matrix(1 0 0 -1 14 74.7408)" fill="white"/>
<ellipse cx="11" cy="21.1967" rx="11" ry="21.1967" transform="matrix(1 0 0 -1 46 127.056)" fill="white"/>
<ellipse cx="11" cy="21.1967" rx="11" ry="21.1967" transform="matrix(1 0 0 -1 79 116.232)" fill="white"/>
<ellipse cx="11" cy="21.1967" rx="11" ry="21.1967" transform="matrix(1 0 0 -1 14 116.232)" fill="white"/>
<ellipse cx="7" cy="11.7259" rx="7" ry="11.7259" transform="matrix(1 0 0 -1 101 79.2507)" fill="white"/>
<ellipse cx="7" cy="11.7259" rx="7" ry="11.7259" transform="matrix(1 0 0 -1 101 79.2507)" fill="white"/>
<ellipse cx="7" cy="11.7259" rx="7" ry="11.7259" transform="matrix(1 0 0 -1 0 79.2507)" fill="white"/>
<ellipse cx="7" cy="11.7259" rx="7" ry="11.7259" transform="matrix(1 0 0 -1 0 79.2507)" fill="white"/>
<ellipse cx="32.5304" cy="31.4343" rx="32.5304" ry="31.4343" transform="matrix(1 0 0 -1 19.4688 211.573)" fill="white"/>
<ellipse cx="8.22609" cy="18.0172" rx="8.22609" ry="18.0172" transform="matrix(1 0 0 -1 43.3984 256.041)" fill="white"/>
<ellipse cx="8.22609" cy="18.0172" rx="8.22609" ry="18.0172" transform="matrix(1 0 0 -1 68.0781 246.84)" fill="white"/>
<ellipse cx="8.22609" cy="18.0172" rx="8.22609" ry="18.0172" transform="matrix(1 0 0 -1 19.4688 246.84)" fill="white"/>
<ellipse cx="5.23478" cy="9.96698" rx="5.23478" ry="9.96698" transform="matrix(1 0 0 -1 84.5312 215.406)" fill="white"/>
<ellipse cx="5.23478" cy="9.96698" rx="5.23478" ry="9.96698" transform="matrix(1 0 0 -1 84.5312 215.406)" fill="white"/>
<ellipse cx="5.23478" cy="9.96698" rx="5.23478" ry="9.96698" transform="matrix(1 0 0 -1 9 215.406)" fill="white"/>
<ellipse cx="5.23478" cy="9.96698" rx="5.23478" ry="9.96698" transform="matrix(1 0 0 -1 9 215.406)" fill="white"/>
<ellipse cx="29.8826" cy="25.6229" rx="29.8826" ry="25.6229" transform="matrix(1 0 0 -1 20.6172 326.228)" fill="white"/>
<ellipse cx="7.55652" cy="14.6863" rx="7.55652" ry="14.6863" transform="matrix(1 0 0 -1 42.6016 362.475)" fill="white"/>
<ellipse cx="7.55652" cy="14.6863" rx="7.55652" ry="14.6863" transform="matrix(1 0 0 -1 65.2695 354.976)" fill="white"/>
<ellipse cx="7.55652" cy="14.6863" rx="7.55652" ry="14.6863" transform="matrix(1 0 0 -1 20.6172 354.976)" fill="white"/>
<ellipse cx="4.8087" cy="8.12434" rx="4.8087" ry="8.12434" transform="matrix(1 0 0 -1 80.3828 329.353)" fill="white"/>
<ellipse cx="4.8087" cy="8.12434" rx="4.8087" ry="8.12434" transform="matrix(1 0 0 -1 80.3828 329.353)" fill="white"/>
<ellipse cx="4.8087" cy="8.12434" rx="4.8087" ry="8.12434" transform="matrix(1 0 0 -1 11 329.353)" fill="white"/>
<ellipse cx="4.8087" cy="8.12434" rx="4.8087" ry="8.12434" transform="matrix(1 0 0 -1 11 329.353)" fill="white"/>
<ellipse cx="20.4261" cy="20.3399" rx="20.4261" ry="20.3399" transform="matrix(1 0 0 -1 31.5742 415.783)" fill="white"/>
<ellipse cx="5.16522" cy="11.6582" rx="5.16522" ry="11.6582" transform="matrix(1 0 0 -1 46.6016 444.556)" fill="white"/>
<ellipse cx="5.16522" cy="11.6582" rx="5.16522" ry="11.6582" transform="matrix(1 0 0 -1 62.0938 438.603)" fill="white"/>
<ellipse cx="5.16522" cy="11.6582" rx="5.16522" ry="11.6582" transform="matrix(1 0 0 -1 31.5742 438.603)" fill="white"/>
<ellipse cx="3.28696" cy="6.44922" rx="3.28696" ry="6.44922" transform="matrix(1 0 0 -1 72.4258 418.263)" fill="white"/>
<ellipse cx="3.28696" cy="6.44922" rx="3.28696" ry="6.44922" transform="matrix(1 0 0 -1 72.4258 418.263)" fill="white"/>
<ellipse cx="3.28696" cy="6.44922" rx="3.28696" ry="6.44922" transform="matrix(1 0 0 -1 25 418.263)" fill="white"/>
<ellipse cx="3.28696" cy="6.44922" rx="3.28696" ry="6.44922" transform="matrix(1 0 0 -1 25 418.263)" fill="white"/>
</svg>
