<svg width="115" height="492" viewBox="0 0 115 492" fill="none" xmlns="http://www.w3.org/2000/svg">
<ellipse cx="57.5" cy="450.214" rx="43.5" ry="40.8875" fill="white"/>
<ellipse cx="57" cy="374.921" rx="11" ry="23.4355" fill="white"/>
<ellipse cx="90" cy="386.888" rx="11" ry="23.4355" fill="white"/>
<ellipse cx="25" cy="386.888" rx="11" ry="23.4355" fill="white"/>
<ellipse cx="108" cy="417.305" rx="7" ry="12.9643" fill="white"/>
<ellipse cx="108" cy="417.305" rx="7" ry="12.9643" fill="white"/>
<ellipse cx="7" cy="417.305" rx="7" ry="12.9643" fill="white"/>
<ellipse cx="7" cy="417.305" rx="7" ry="12.9643" fill="white"/>
<ellipse cx="51.9992" cy="292.797" rx="32.5304" ry="34.7543" fill="white"/>
<ellipse cx="51.6245" cy="228.798" rx="8.22609" ry="19.9202" fill="white"/>
<ellipse cx="76.3042" cy="238.97" rx="8.22609" ry="19.9202" fill="white"/>
<ellipse cx="27.6948" cy="238.97" rx="8.22609" ry="19.9202" fill="white"/>
<ellipse cx="89.766" cy="264.824" rx="5.23478" ry="11.0197" fill="white"/>
<ellipse cx="89.766" cy="264.824" rx="5.23478" ry="11.0197" fill="white"/>
<ellipse cx="14.2348" cy="264.824" rx="5.23478" ry="11.0197" fill="white"/>
<ellipse cx="14.2348" cy="264.824" rx="5.23478" ry="11.0197" fill="white"/>
<ellipse cx="50.4998" cy="159.607" rx="29.8826" ry="28.3292" fill="white"/>
<ellipse cx="50.1581" cy="107.44" rx="7.55652" ry="16.2375" fill="white"/>
<ellipse cx="72.826" cy="115.731" rx="7.55652" ry="16.2375" fill="white"/>
<ellipse cx="28.1737" cy="115.731" rx="7.55652" ry="16.2375" fill="white"/>
<ellipse cx="85.1915" cy="136.805" rx="4.8087" ry="8.98242" fill="white"/>
<ellipse cx="85.1915" cy="136.805" rx="4.8087" ry="8.98242" fill="white"/>
<ellipse cx="15.8087" cy="136.805" rx="4.8087" ry="8.98242" fill="white"/>
<ellipse cx="15.8087" cy="136.805" rx="4.8087" ry="8.98242" fill="white"/>
<ellipse cx="52.0003" cy="54.7525" rx="20.4261" ry="22.4881" fill="white"/>
<ellipse cx="51.7668" cy="13.3414" rx="5.16522" ry="12.8895" fill="white"/>
<ellipse cx="67.259" cy="19.9233" rx="5.16522" ry="12.8895" fill="white"/>
<ellipse cx="36.7394" cy="19.9233" rx="5.16522" ry="12.8895" fill="white"/>
<ellipse cx="75.7127" cy="36.6522" rx="3.28696" ry="7.13037" fill="white"/>
<ellipse cx="75.7127" cy="36.6522" rx="3.28696" ry="7.13037" fill="white"/>
<ellipse cx="28.287" cy="36.6522" rx="3.28696" ry="7.13037" fill="white"/>
<ellipse cx="28.287" cy="36.6522" rx="3.28696" ry="7.13037" fill="white"/>
</svg>
