<svg width="115" height="492" viewBox="0 0 115 492" fill="none" xmlns="http://www.w3.org/2000/svg">
<ellipse cx="57.5" cy="451" rx="43.5" ry="41" fill="white"/>
<ellipse cx="57" cy="375.5" rx="11" ry="23.5" fill="white"/>
<ellipse cx="90" cy="387.5" rx="11" ry="23.5" fill="white"/>
<ellipse cx="25" cy="387.5" rx="11" ry="23.5" fill="white"/>
<ellipse cx="108" cy="418" rx="7" ry="13" fill="white"/>
<ellipse cx="108" cy="418" rx="7" ry="13" fill="white"/>
<ellipse cx="7" cy="418" rx="7" ry="13" fill="white"/>
<ellipse cx="7" cy="418" rx="7" ry="13" fill="white"/>
<ellipse cx="51.9992" cy="293.15" rx="32.5304" ry="34.85" fill="white"/>
<ellipse cx="51.6245" cy="228.975" rx="8.22609" ry="19.975" fill="white"/>
<ellipse cx="76.3042" cy="239.175" rx="8.22609" ry="19.975" fill="white"/>
<ellipse cx="27.6948" cy="239.175" rx="8.22609" ry="19.975" fill="white"/>
<ellipse cx="89.766" cy="265.1" rx="5.23478" ry="11.05" fill="white"/>
<ellipse cx="89.766" cy="265.1" rx="5.23478" ry="11.05" fill="white"/>
<ellipse cx="14.2348" cy="265.1" rx="5.23478" ry="11.05" fill="white"/>
<ellipse cx="14.2348" cy="265.1" rx="5.23478" ry="11.05" fill="white"/>
<ellipse cx="50.4998" cy="159.593" rx="29.8826" ry="28.4071" fill="white"/>
<ellipse cx="50.1581" cy="107.282" rx="7.55652" ry="16.2821" fill="white"/>
<ellipse cx="72.826" cy="115.596" rx="7.55652" ry="16.2821" fill="white"/>
<ellipse cx="28.1737" cy="115.596" rx="7.55652" ry="16.2821" fill="white"/>
<ellipse cx="85.1915" cy="136.729" rx="4.8087" ry="9.00714" fill="white"/>
<ellipse cx="85.1915" cy="136.729" rx="4.8087" ry="9.00714" fill="white"/>
<ellipse cx="15.8087" cy="136.729" rx="4.8087" ry="9.00714" fill="white"/>
<ellipse cx="15.8087" cy="136.729" rx="4.8087" ry="9.00714" fill="white"/>
<ellipse cx="52.0003" cy="54.45" rx="20.4261" ry="22.55" fill="white"/>
<ellipse cx="51.7668" cy="12.925" rx="5.16522" ry="12.925" fill="white"/>
<ellipse cx="67.259" cy="19.525" rx="5.16522" ry="12.925" fill="white"/>
<ellipse cx="36.7394" cy="19.525" rx="5.16522" ry="12.925" fill="white"/>
<ellipse cx="75.7127" cy="36.3" rx="3.28696" ry="7.15" fill="white"/>
<ellipse cx="75.7127" cy="36.3" rx="3.28696" ry="7.15" fill="white"/>
<ellipse cx="28.287" cy="36.3" rx="3.28696" ry="7.15" fill="white"/>
<ellipse cx="28.287" cy="36.3" rx="3.28696" ry="7.15" fill="white"/>
</svg>
