<svg width="115" height="445" viewBox="0 0 115 445" fill="none" xmlns="http://www.w3.org/2000/svg">
<ellipse cx="43.5" cy="37.0833" rx="43.5" ry="37.0833" transform="matrix(1 0 0 -1 14 74.1666)" fill="white"/>
<ellipse cx="11" cy="21.2551" rx="11" ry="21.2551" transform="matrix(1 0 0 -1 46 126.626)" fill="white"/>
<ellipse cx="11" cy="21.2551" rx="11" ry="21.2551" transform="matrix(1 0 0 -1 79 115.772)" fill="white"/>
<ellipse cx="11" cy="21.2551" rx="11" ry="21.2551" transform="matrix(1 0 0 -1 14 115.772)" fill="white"/>
<ellipse cx="7" cy="11.7581" rx="7" ry="11.7581" transform="matrix(1 0 0 -1 101 78.689)" fill="white"/>
<ellipse cx="7" cy="11.7581" rx="7" ry="11.7581" transform="matrix(1 0 0 -1 101 78.689)" fill="white"/>
<ellipse cx="7" cy="11.7581" rx="7" ry="11.7581" transform="matrix(1 0 0 -1 0 78.689)" fill="white"/>
<ellipse cx="7" cy="11.7581" rx="7" ry="11.7581" transform="matrix(1 0 0 -1 0 78.689)" fill="white"/>
<ellipse cx="32.5304" cy="31.5208" rx="32.5304" ry="31.5208" transform="matrix(1 0 0 -1 19.4688 211.375)" fill="white"/>
<ellipse cx="8.22609" cy="18.0668" rx="8.22609" ry="18.0668" transform="matrix(1 0 0 -1 43.3984 255.965)" fill="white"/>
<ellipse cx="8.22609" cy="18.0668" rx="8.22609" ry="18.0668" transform="matrix(1 0 0 -1 68.0781 246.74)" fill="white"/>
<ellipse cx="8.22609" cy="18.0668" rx="8.22609" ry="18.0668" transform="matrix(1 0 0 -1 19.4688 246.74)" fill="white"/>
<ellipse cx="5.23478" cy="9.99441" rx="5.23478" ry="9.99441" transform="matrix(1 0 0 -1 84.5312 215.219)" fill="white"/>
<ellipse cx="5.23478" cy="9.99441" rx="5.23478" ry="9.99441" transform="matrix(1 0 0 -1 84.5312 215.219)" fill="white"/>
<ellipse cx="5.23478" cy="9.99441" rx="5.23478" ry="9.99441" transform="matrix(1 0 0 -1 9 215.219)" fill="white"/>
<ellipse cx="5.23478" cy="9.99441" rx="5.23478" ry="9.99441" transform="matrix(1 0 0 -1 9 215.219)" fill="white"/>
<ellipse cx="29.8826" cy="25.6935" rx="29.8826" ry="25.6935" transform="matrix(1 0 0 -1 20.6172 326.346)" fill="white"/>
<ellipse cx="7.55652" cy="14.7267" rx="7.55652" ry="14.7267" transform="matrix(1 0 0 -1 42.6016 362.693)" fill="white"/>
<ellipse cx="7.55652" cy="14.7267" rx="7.55652" ry="14.7267" transform="matrix(1 0 0 -1 65.2695 355.173)" fill="white"/>
<ellipse cx="7.55652" cy="14.7267" rx="7.55652" ry="14.7267" transform="matrix(1 0 0 -1 20.6172 355.173)" fill="white"/>
<ellipse cx="4.8087" cy="8.1467" rx="4.8087" ry="8.1467" transform="matrix(1 0 0 -1 80.3828 329.48)" fill="white"/>
<ellipse cx="4.8087" cy="8.1467" rx="4.8087" ry="8.1467" transform="matrix(1 0 0 -1 80.3828 329.48)" fill="white"/>
<ellipse cx="4.8087" cy="8.1467" rx="4.8087" ry="8.1467" transform="matrix(1 0 0 -1 11 329.48)" fill="white"/>
<ellipse cx="4.8087" cy="8.1467" rx="4.8087" ry="8.1467" transform="matrix(1 0 0 -1 11 329.48)" fill="white"/>
<ellipse cx="20.4261" cy="20.3958" rx="20.4261" ry="20.3958" transform="matrix(1 0 0 -1 31.5742 416.147)" fill="white"/>
<ellipse cx="5.16522" cy="11.6903" rx="5.16522" ry="11.6903" transform="matrix(1 0 0 -1 46.6016 445)" fill="white"/>
<ellipse cx="5.16522" cy="11.6903" rx="5.16522" ry="11.6903" transform="matrix(1 0 0 -1 62.0938 439.03)" fill="white"/>
<ellipse cx="5.16522" cy="11.6903" rx="5.16522" ry="11.6903" transform="matrix(1 0 0 -1 31.5742 439.03)" fill="white"/>
<ellipse cx="3.28696" cy="6.46697" rx="3.28696" ry="6.46697" transform="matrix(1 0 0 -1 72.4258 418.635)" fill="white"/>
<ellipse cx="3.28696" cy="6.46697" rx="3.28696" ry="6.46697" transform="matrix(1 0 0 -1 72.4258 418.635)" fill="white"/>
<ellipse cx="3.28696" cy="6.46697" rx="3.28696" ry="6.46697" transform="matrix(1 0 0 -1 25 418.635)" fill="white"/>
<ellipse cx="3.28696" cy="6.46697" rx="3.28696" ry="6.46697" transform="matrix(1 0 0 -1 25 418.635)" fill="white"/>
</svg>
